<svg xmlns="http://www.w3.org/2000/svg" viewBox="0 0 445.22 436.95">
  <g id="Layer_2" data-name="Layer 2">
    <g id="Layer_1-2" data-name="Layer 1">
      <path class="base-line"
        d="M11.59,436.69H376c18.65,0,37.42.6,56.06,0h.83c15.45,0,15.47-24,0-24H11.59c-15.44,0-15.47,24,0,24Z"/>
      <path class="peak"
        d="M64.83,430.74,142.51,304l10.94-17.86L137,290.4l61.61,43.68,9,6.36c5.2,3.68,13.51,1,16.42-4.31L281,232.61l8.18-14.88H268.4l39.16,72L370,404.4l14.33,26.34c7.38,13.58,28.11,1.48,20.72-12.11l-39.15-72L303.46,232l-14.33-26.34c-4.26-7.83-16.45-7.78-20.73,0L211.5,309.15,203.32,324l16.42-4.3L158.12,276l-9-6.36c-5.37-3.81-13.27-.84-16.42,4.3L55.05,400.77,44.11,418.63C36,431.84,56.76,443.91,64.83,430.74Z"/>
      <path class="flag"
        d="M290.77,214.68V97l-12,12h84.06l-12-12v50.52l12-12L278.77,137c-15.43.27-15.48,24.27,0,24l84.06-1.49a12.18,12.18,0,0,0,12-12V97a12.17,12.17,0,0,0-12-12H278.77a12.17,12.17,0,0,0-12,12V214.68c0,15.44,24,15.46,24,0Z"/>
    </g>
    <g id="Layer_2-2" data-name="Layer 2">
      <path class="flash"
        d="M406.53,130.43q16.46-.6,32.91,0c7.72.27,7.71-11.73,0-12q-16.45-.59-32.91,0c-7.7.27-7.73,12.27,0,12Z"/>
      <path class="flash"
        d="M202.16,130.43q15.71-.6,31.41,0c7.73.29,7.71-11.71,0-12q-15.7-.6-31.41,0c-7.69.29-7.73,12.29,0,12Z"/>
      <path class="flash"
        d="M314.8,211.9q-.57,15.57,0,31.16c.28,7.7,12.29,7.74,12,0q-.57-15.59,0-31.16c.28-7.73-11.72-7.71-12,0Z"/>
      <path class="flash"
        d="M314.8,5.79q-.56,16.46,0,32.9c.27,7.7,12.27,7.74,12,0q-.57-16.45,0-32.9c.26-7.72-11.74-7.72-12,0Z"/>
      <path class="flash"
        d="M385.67,68c7.37-8.13,15.57-15.44,23.26-23.26,5.42-5.51-3.06-14-8.48-8.49-7.7,7.82-15.9,15.14-23.27,23.27-5.18,5.71,3.29,14.22,8.49,8.48Z"/>
      <path class="flash"
        d="M241.15,212.56c6.43-8,14.49-14.41,21.69-21.69,5.44-5.5-3-14-8.48-8.49-7.2,7.28-15.26,13.67-21.69,21.69-2,2.55-2.44,6,0,8.49,2.08,2.12,6.46,2.52,8.48,0Z"/>
      <path class="flash"
        d="M263.36,58.5q-11.09-11.11-22.21-22.21c-5.47-5.46-14,3-8.48,8.49Q243.79,55.87,254.88,67c5.46,5.47,13.95-3,8.48-8.49Z"/>
      <path class="flash"
        d="M408.93,204.07q-11.18-11.2-22.38-22.38c-5.48-5.46-14,3-8.49,8.48q11.2,11.18,22.39,22.39c5.46,5.47,13.94-3,8.48-8.49Z"/>
    </g>
  </g>
</svg>
