<svg xmlns="http://www.w3.org/2000/svg" width="53.847" height="53.847" viewBox="0 0 53.847 53.847"><defs><style>.a{fill:#fff;fill-rule:evenodd;}</style></defs><path class="a" d="M26.924,4.786c7.18,0,8.077,0,10.769.3a13.875,13.875,0,0,1,5.086.9,10.506,10.506,0,0,1,5.086,5.086,13.875,13.875,0,0,1,.9,5.086c0,2.692.3,3.59.3,10.769s0,8.077-.3,10.769a13.875,13.875,0,0,1-.9,5.086,10.506,10.506,0,0,1-5.086,5.086,13.875,13.875,0,0,1-5.086.9c-2.692,0-3.59.3-10.769.3s-8.077,0-10.769-.3a13.875,13.875,0,0,1-5.086-.9,10.506,10.506,0,0,1-5.086-5.086,13.875,13.875,0,0,1-.9-5.086c0-2.692-.3-3.59-.3-10.769s0-8.077.3-10.769a13.875,13.875,0,0,1,.9-5.086A10.744,10.744,0,0,1,8.077,8.077a5.058,5.058,0,0,1,2.992-2.094,13.875,13.875,0,0,1,5.086-.9c2.692-.3,3.59-.3,10.769-.3m0-4.786c-7.18,0-8.376,0-11.069.3A18.468,18.468,0,0,0,9.274,1.5,11.711,11.711,0,0,0,4.487,4.487,11.711,11.711,0,0,0,1.5,9.274,13.63,13.63,0,0,0,.3,15.855C0,18.547,0,19.744,0,26.924S0,35.3.3,37.992a18.468,18.468,0,0,0,1.2,6.581A11.711,11.711,0,0,0,4.487,49.36a11.711,11.711,0,0,0,4.786,2.992,18.469,18.469,0,0,0,6.581,1.2c2.692.3,3.889.3,11.069.3s8.376,0,11.069-.3a18.469,18.469,0,0,0,6.581-1.2,12.551,12.551,0,0,0,7.778-7.778,18.468,18.468,0,0,0,1.2-6.581c0-2.992.3-3.889.3-11.069s0-8.376-.3-11.069a18.469,18.469,0,0,0-1.2-6.581A11.711,11.711,0,0,0,49.36,4.487,11.711,11.711,0,0,0,44.573,1.5,18.468,18.468,0,0,0,37.992.3C35.3,0,34.1,0,26.924,0m0,13.163A13.539,13.539,0,0,0,13.163,26.924,13.761,13.761,0,1,0,26.924,13.163m0,22.735a8.814,8.814,0,0,1-8.975-8.975,8.814,8.814,0,0,1,8.975-8.975A8.814,8.814,0,0,1,35.9,26.924,8.814,8.814,0,0,1,26.924,35.9M41.283,9.274a3.291,3.291,0,1,0,3.291,3.291,3.32,3.32,0,0,0-3.291-3.291"/></svg>