<svg xmlns="http://www.w3.org/2000/svg" xmlns:xlink="http://www.w3.org/1999/xlink" viewBox="0 0 3877.96 2171.91"><defs><style>.cls-1{fill:url(#radial-gradient);}.cls-2{fill:url(#linear-gradient);}.cls-3{fill:url(#linear-gradient-2);}</style><radialGradient id="radial-gradient" cx="1920.05" cy="1085.95" r="1559.79" gradientTransform="translate(0 0) scale(1.01 1)" gradientUnits="userSpaceOnUse"><stop offset="0" stop-color="#142838"/><stop offset="1"/></radialGradient><linearGradient id="linear-gradient" x1="-2.01" y1="1085.95" x2="3840.09" y2="1085.95" gradientTransform="matrix(1, 0, 0, 1, 0, 0)" xlink:href="#radial-gradient"/><linearGradient id="linear-gradient-2" x1="546.56" y1="1411.29" x2="2845.28" y2="1411.29" gradientTransform="translate(2845.28 2065.53) rotate(180)" xlink:href="#radial-gradient"/></defs><g id="Layer_2" data-name="Layer 2"><rect class="cls-1" width="3877.96" height="2171.91"/></g><g id="Layer_3" data-name="Layer 3"><path class="cls-2" d="M0,2171.91S-45.25,1884.14,293.17,1560s766-411.85,1104.29-391.85c723.14,42.75,1180.85,272.43,1706.32,146,281.42-67.68,562.83-480.9,573.52-936.87C3680.22,252.62,3634.55,0,3634.55,0h205.54V2171.91Z" transform="translate(20.55 0)"/><path class="cls-3" d="M2297.51,4.53s27.07,172.16-175.4,366.11S1663.81,617,1461.42,605.08c-432.65-25.58-706.5-163-1020.89-87.38C272.16,558.19,103.79,805.42,97.4,1078.22,95.65,1152.83,123,1304,123,1304H0V4.52Z" transform="translate(20.55 0)"/></g></svg>