<svg id="Layer_1" data-name="Layer 1" xmlns="http://www.w3.org/2000/svg" xmlns:xlink="http://www.w3.org/1999/xlink" viewBox="0 0 3877.96 2171.91"><defs><style>.cls-1{opacity:0.92;}.cls-2{fill:url(#radial-gradient);}.cls-3{fill:url(#linear-gradient);}.cls-4{fill:url(#linear-gradient-2);}</style><radialGradient id="radial-gradient" cx="1919.96" cy="1085.95" r="1559.63" gradientTransform="matrix(1.01, 0, 0, -1, -0.18, 2171.91)" gradientUnits="userSpaceOnUse"><stop offset="0" stop-color="#142838"/><stop offset="1"/></radialGradient><linearGradient id="linear-gradient" x1="-20.55" y1="1085.95" x2="3857.41" y2="1085.95" gradientTransform="matrix(1, 0, 0, -1, 20.55, 2171.91)" xlink:href="#radial-gradient"/><linearGradient id="linear-gradient-2" x1="579.63" y1="760.64" x2="2899.8" y2="760.64" gradientTransform="matrix(-1, 0, 0, 1, 2901.83, -106.38)" xlink:href="#radial-gradient"/></defs><g id="Layer_2" data-name="Layer 2" class="cls-1"><rect class="cls-2" width="3877.96" height="2171.91"/></g><g id="Layer_3" data-name="Layer 3" class="cls-1"><path class="cls-3" d="M2,2171.91S-43.64,1884.14,297.94,1560s773.15-411.85,1114.59-391.85c729.89,42.75,1191.87,272.43,1722.25,146,284-67.68,568.08-480.9,578.87-936.87C3716.6,252.62,3670.5,0,3670.5,0H3878V2171.91Z" transform="translate(0 0)"/><path class="cls-4" d="M2321,4.53s27.33,172.16-177,366.11S1681.37,617,1477.09,605.08C1040.4,579.5,764,442.08,446.67,517.7,276.73,558.19,132,797,91.06,1037.16,70,1135.72,2,1304,2,1304H2V4.52Z" transform="translate(0 0)"/></g></svg>