<svg xmlns="http://www.w3.org/2000/svg" viewBox="0 0 490.5 252.4"><defs><style>.cls-1{fill:#fff;}.cls-2{fill:#274f6d;}.cls-3{fill:#f08155;}.cls-4{fill:#fdca4d;}</style></defs><g id="Layer_2" data-name="Layer 2"><g id="Final"><path class="cls-1" d="M74.64,76.08V96.31A54.79,54.79,0,0,0,20.23,151v73.55H0V151A75,75,0,0,1,74.64,76.08Z"/><path class="cls-1" d="M272.86,54.84v64.8h53.87v20.24H272.86V150a54.8,54.8,0,0,0,54.41,54.69v20.23c-41.28,0-74.64-32.81-74.64-74.1v-96Z"/><path class="cls-1" d="M490.5,150a74.78,74.78,0,1,1-74.64-74.64A74.8,74.8,0,0,1,490.5,150Zm-20.23,0a54.55,54.55,0,1,0-54.41,54.69A54.38,54.38,0,0,0,470.27,150Z"/><path class="cls-1" d="M223.56,178.54h.06a65.21,65.21,0,0,0-5.79-21.67,66.42,66.42,0,0,0-27.4-30.17,66.51,66.51,0,0,0,27.39-30.13,65.44,65.44,0,0,0,5.8-21.71h-.06c.2-2.15.31-4.33.31-6.54A67.44,67.44,0,0,0,89,68.32h18.25a49.19,49.19,0,0,1,98.38,0,50.35,50.35,0,0,1-.44,6.54h-.05a49.2,49.2,0,0,1-48.58,42.66v.11h0v18.25a49.2,49.2,0,0,1,48.58,42.66h.05a50.35,50.35,0,0,1,.44,6.54,49.19,49.19,0,0,1-98.38,0H89a67.44,67.44,0,0,0,134.88,0C223.87,182.87,223.76,180.69,223.56,178.54Z"/><path class="cls-2" d="M158.6,0A67.45,67.45,0,0,0,91,67.32h18.25a49.24,49.24,0,0,1,84.71-34l13.82-12A67.11,67.11,0,0,0,158.6,0Z"/><path class="cls-3" d="M158.6,251.43a67.24,67.24,0,0,0,67.32-67.32c0-2.21-.11-4.39-.31-6.54h.06a65.21,65.21,0,0,0-5.79-21.67,66,66,0,0,0-8.72-14.16l-14,12.11a49.22,49.22,0,0,1,10,23.72h0a50.35,50.35,0,0,1,.44,6.54A49.16,49.16,0,0,1,123,218.06l-13.82,12A67.5,67.5,0,0,0,158.6,251.43Z"/><path class="cls-4" d="M109.29,184.08H91a66.94,66.94,0,0,0,18.67,46.43l13.83-12A48.74,48.74,0,0,1,109.29,184.08Z"/><path class="cls-4" d="M192.48,125.7a66.51,66.51,0,0,0,27.39-30.13,65.44,65.44,0,0,0,5.8-21.71h-.06c.2-2.15.31-4.33.31-6.54a67,67,0,0,0-18.1-45.95L194,33.34a48.9,48.9,0,0,1,13.67,34,50.35,50.35,0,0,1-.44,6.54h0a49.2,49.2,0,0,1-48.58,42.66v.11h0v18.25a48.87,48.87,0,0,1,39,19.51l14-12.12A66.35,66.35,0,0,0,192.48,125.7Z"/></g></g></svg>