<svg xmlns="http://www.w3.org/2000/svg" width="862.204" height="1080" viewBox="0 0 862.204 1080"><g transform="translate(-5.8 -1)"><g transform="translate(5.8 1)"><path d="M64.942,13.4C24.527,13.4,13.3,53.816,13.3,94.232s11.227,80.832,51.642,80.832,51.642-40.416,51.642-80.832C118.83,53.816,105.358,13.4,64.942,13.4Z" transform="translate(155.099 265.02)"/><path d="M845.551,1H28.253A22.5,22.5,0,0,0,5.8,23.453v550.1A22.5,22.5,0,0,0,28.253,596.01h817.3A22.5,22.5,0,0,0,868,573.557V23.453C865.758,9.981,856.777,1,845.551,1ZM225.842,470.272c-62.869,0-87.568-49.4-87.568-112.266s24.7-112.266,87.568-112.266,87.568,49.4,87.568,112.266S288.711,470.272,225.842,470.272ZM338.108,151.437H113.575a22.453,22.453,0,0,1,0-44.906H338.108a22.5,22.5,0,0,1,22.453,22.453C360.561,142.455,351.58,151.437,338.108,151.437ZM436.9,443.328c-15.717,0-29.189-13.472-29.189-29.189S421.185,384.95,436.9,384.95s29.189,13.472,29.189,29.189S452.619,443.328,436.9,443.328Zm0-141.455c-15.717,0-29.189-13.472-29.189-29.189s13.472-29.189,29.189-29.189,29.189,13.472,29.189,29.189S452.619,301.873,436.9,301.873ZM719.813,465.782H571.621V434.347c47.152-49.4,80.832-78.586,96.549-101.039,20.208-29.189,4.491-56.133-24.7-56.133-17.963,0-31.435,8.981-44.906,26.944l-29.189-17.963c22.453-31.435,44.906-42.661,76.341-42.661,56.133,0,83.077,53.888,58.378,96.549-13.472,22.453-44.906,51.642-83.077,89.813h98.794Zm38.17-314.345H533.451a22.453,22.453,0,1,1,0-44.906H757.983a22.5,22.5,0,0,1,22.453,22.453C778.191,142.455,769.21,151.437,757.983,151.437Z" transform="translate(-5.8 -1)"/></g><path d="M845.551,428.967h-386.2V128.094H567.131c8.981,0,17.963-6.736,20.208-15.717L609.792,29.3H564.885L549.168,85.433H324.636L308.918,29.3H264.012l22.453,83.077c2.245,8.981,11.227,15.717,20.208,15.717H414.449V428.967H28.253a22.453,22.453,0,1,0,0,44.906h817.3A22.5,22.5,0,0,0,868,451.421C865.758,437.949,856.777,428.967,845.551,428.967Z" transform="translate(0 607.126)"/></g></svg>