<svg xmlns="http://www.w3.org/2000/svg" width="1080" height="1080" viewBox="0 0 1080 1080"><g transform="translate(-6 -6)"><g transform="translate(6 6)"><path d="M114,406A108,108,0,1,0,222,514,108.039,108.039,0,0,0,114,406Zm0,172.8A64.8,64.8,0,1,1,178.8,514,64.99,64.99,0,0,1,114,578.8Z" transform="translate(-6 458)"/><path d="M67.6,326a21.6,21.6,0,1,0,0,43.2c131.112,0,237.6,106.488,237.6,237.6a21.6,21.6,0,1,0,43.2,0C348.4,451.928,222.472,326,67.6,326Z" transform="translate(40.4 365.2)"/><path d="M67.6,246a21.6,21.6,0,0,0,0,43.2C293.968,289.2,478,473.232,478,699.6a21.6,21.6,0,1,0,43.2,0C521.2,449.472,317.728,246,67.6,246Z" transform="translate(40.4 272.4)"/><path d="M67.6,166a21.6,21.6,0,0,0,0,43.2c321.624,0,583.2,261.576,583.2,583.2a21.6,21.6,0,1,0,43.2,0c0-167.4-65.232-324.648-183.384-442.8C392.248,231.232,235,166,67.6,166Z" transform="translate(40.4 179.6)"/><path d="M67.6,86a21.6,21.6,0,1,0,0,43.2c416.88,0,756,339.12,756,756a21.6,21.6,0,1,0,43.2,0C866.8,443.7,508.888,86,67.6,86Z" transform="translate(40.4 86.8)"/><path d="M67.6,6a21.6,21.6,0,1,0,0,43.2c512.136,0,928.8,416.664,928.8,928.8a21.6,21.6,0,1,0,43.2,0C1039.6,438.648,601.768,6,67.6,6Z" transform="translate(40.4 -6)"/></g></g></svg>