<svg xmlns="http://www.w3.org/2000/svg" width="674.4" height="1080" viewBox="0 0 674.4 1080"><g transform="translate(-21.9 -5)"><path d="M21.9,5V1085H696.3V5ZM359.1,1049a33.6,33.6,0,0,1,0-67.2c18,0,33.6,15.6,33.6,33.6A33.541,33.541,0,0,1,359.1,1049Zm303.6-98.4H55.5V72.2H662.7Zm-388.8-516a61.2,61.2,0,1,1,61.2,61.2A61.458,61.458,0,0,1,273.9,434.6Zm325.2-144h-480a18.456,18.456,0,0,0-18,18v480c0,4.8,2.4,9.6,6,13.2,3.6,2.4,7.2,4.8,12,4.8h480c4.8,0,8.4-1.2,12-4.8s6-8.4,6-13.2V307.4C617.1,297.8,608.7,290.6,599.1,290.6Zm-18,372-129.6-150-108,126L189.9,459.8l-52.8,62.4V326.6h444Zm-374.4-408H114.3a14.592,14.592,0,0,1-14.4-14.4V149a14.592,14.592,0,0,1,14.4-14.4h92.4A14.592,14.592,0,0,1,221.1,149v92.4C221.1,248.6,215.1,254.6,206.7,254.6Zm-78-27.6h64.8V162.2H128.7S128.7,227,128.7,227Zm470.4-44.4H265.5a18,18,0,0,1,0-36H599.1a18,18,0,0,1,0,36Zm0,696h-480a18,18,0,1,1,0-36h480a18,18,0,0,1,0,36Zm-120-636H265.5a18,18,0,0,1,0-36H479.1a18,18,0,0,1,0,36Z" transform="translate(0)"/></g></svg>