<svg xmlns="http://www.w3.org/2000/svg" xmlns:xlink="http://www.w3.org/1999/xlink" version="1.1" x="0px" y="0px" viewBox="0 0 50 50" fill="#ffa387"
  enable-background="new 0 0 50 50"
  xml:space="preserve">
  <g>
    <path d="M40.407,10.364c0.175,0.066,0.359,0.097,0.54,0.097c0.402,0,0.797-0.157,1.091-0.451l3.286-3.286   c0.372-0.372,0.528-0.901,0.416-1.416c-0.111-0.514-0.472-0.931-0.964-1.116L43.18,3.595l-0.599-1.596   c-0.185-0.493-0.603-0.852-1.118-0.963c-0.508-0.11-1.041,0.044-1.414,0.416l-3.285,3.285c-0.426,0.426-0.565,1.066-0.353,1.63   v0.001l0.743,1.978L36.35,9.15c-3.415-3.111-7.939-5.027-12.912-5.027c-10.594,0-19.214,8.619-19.214,19.214   c0,6.49,3.242,12.227,8.183,15.707l-3.28,7.44c-0.245,0.558-0.192,1.195,0.14,1.704C9.599,48.697,10.16,49,10.766,49h4.102   c0.713,0,1.358-0.416,1.647-1.066l2.592-5.893c1.394,0.323,2.839,0.51,4.33,0.51c1.493,0,2.939-0.188,4.335-0.512l2.594,5.899   C30.655,48.584,31.3,49,32.012,49h4.094c0.614,0,1.178-0.308,1.51-0.824c0.33-0.512,0.375-1.148,0.127-1.692l-3.272-7.443   c4.939-3.481,8.18-9.217,8.18-15.705c0-4.976-1.917-9.501-5.032-12.918l0.801-0.801L40.407,10.364z M41.04,3l0.602,1.607   c0.091,0.242,0.282,0.434,0.525,0.525l1.608,0.603l-2.891,2.89l-1.988-0.746L38.149,5.89L41.04,3z M14.869,47.205l-4.098,0.003   l3.17-7.19c1.08,0.618,2.224,1.132,3.422,1.533L14.869,47.205z M36.106,47.205l-4.098,0.007l-2.49-5.663   c1.198-0.401,2.342-0.916,3.422-1.534L36.106,47.205z M40.856,23.337c0,9.605-7.814,17.419-17.418,17.419S6.02,32.941,6.02,23.337   S13.833,5.918,23.438,5.918c4.478,0,8.554,1.713,11.643,4.501l-2.219,2.219c-2.518-2.22-5.811-3.58-9.424-3.58   c-7.873,0-14.279,6.405-14.279,14.279c0,7.873,6.405,14.278,14.279,14.278s14.278-6.405,14.278-14.278   c0-3.616-1.362-6.912-3.585-9.43l2.219-2.219C39.141,14.778,40.856,18.855,40.856,23.337z M26.435,23.337   c0,1.652-1.345,2.997-2.997,2.997s-2.996-1.345-2.996-2.997c0-1.652,1.344-2.996,2.996-2.996c0.497,0,0.959,0.133,1.372,0.348   l-2.66,2.66c-0.351,0.351-0.351,0.919,0,1.269c0.175,0.175,0.405,0.263,0.635,0.263c0.23,0,0.459-0.088,0.635-0.263l2.662-2.662   C26.3,22.371,26.435,22.836,26.435,23.337z M26.126,19.373c-0.767-0.522-1.692-0.828-2.688-0.828c-2.642,0-4.791,2.149-4.791,4.791   c0,2.643,2.149,4.792,4.791,4.792c2.643,0,4.792-2.149,4.792-4.792c0-0.999-0.309-1.926-0.834-2.695l2.249-2.249   c1.084,1.358,1.737,3.075,1.737,4.944c0,4.38-3.564,7.944-7.944,7.944s-7.944-3.564-7.944-7.944c0-4.38,3.564-7.944,7.944-7.944   c1.866,0,3.58,0.651,4.937,1.732L26.126,19.373z M29.654,15.846c-1.688-1.403-3.855-2.249-6.216-2.249   c-5.371,0-9.74,4.369-9.74,9.74s4.369,9.739,9.74,9.739s9.74-4.369,9.74-9.739c0-2.364-0.848-4.533-2.254-6.222l1.939-1.939   c1.9,2.191,3.059,5.04,3.059,8.161c0,6.884-5.6,12.483-12.483,12.483c-6.884,0-12.483-5.6-12.483-12.483   c0-6.884,5.6-12.483,12.483-12.483c3.118,0,5.965,1.157,8.155,3.053L29.654,15.846z"/>
  </g>
  </svg>
