<svg xmlns="http://www.w3.org/2000/svg" width="1080.202" height="1080.202" viewBox="0 0 1080.202 1080.202"><path d="M1069.629,552.675,926.888,409.934V39.579C926.888,16.431,911.456,1,888.309,1H618.259C595.111,1,579.68,16.431,579.68,39.579c0,11.574,3.858,23.147,11.574,30.863L849.73,290.34V409.934L502.523,757.142,336.634,591.253c-15.431-15.431-38.579-15.431-54.01,0L12.574,861.3C4.858,869.02,1,876.736,1,888.309v154.315c0,23.147,15.431,38.579,38.579,38.579H1042.624c23.147,0,38.579-15.431,38.579-38.579V579.68C1081.2,568.106,1077.345,560.391,1069.629,552.675Z" transform="translate(-1 -1)"/></svg>