<svg xmlns="http://www.w3.org/2000/svg" width="1079.276" height="1079.276" viewBox="0 0 1079.276 1079.276">
  <g transform="translate(-5 -5)">
    <path
      d="M544.638,5C246.758,5,5,246.758,5,544.638s241.758,539.638,539.638,539.638,539.638-241.758,539.638-539.638S842.518,5,544.638,5Zm0,1036.1C270.5,1041.1,48.171,818.774,48.171,544.638S270.5,48.171,544.638,48.171,1041.1,270.5,1041.1,544.638,818.774,1041.1,544.638,1041.1Z"
      transform="translate(0 0)"/>
    <path d="M237.914,450.527A218.014,218.014,0,1,0,19.9,232.514,217.411,217.411,0,0,0,237.914,450.527Z" transform="translate(306.724 195.562)"/>
    <path
      d="M529.294,34.2C486.123,68.737,430,88.164,371.72,88.164c-60.439,0-114.4-19.427-157.574-53.964C127.8,70.9,56.571,137.81,13.4,221.994,95.425,329.922,227.1,399,371.72,399c146.781,0,276.295-69.074,358.319-177C686.868,135.652,615.636,70.9,529.294,34.2Z"
      transform="translate(172.918 601.097)"/>
  </g>
</svg>
