<svg xmlns="http://www.w3.org/2000/svg" viewBox="0 0 100 100">
  <g stroke="none" stroke-width="1" fill="none" fill-rule="evenodd">
    <g fill="#000000">
      <path
        d="M26,16 C25.4438648,16 25,16.4476291 25,16.9998075 L25,20.0001925 C25,20.5562834 25.4477153,21 26,21 L26,23 C25.4408979,23 25,23.4456547 25,23.9953976 L25,32.0046024 C25,32.5443356 25.4458692,33 25.9958767,33 L26,34 C25.4438648,34 25,34.4456547 25,34.9953976 L25,43.0046024 C25,43.5443356 25.4477153,44 26,44 L26,90.0007318 C26,92.7528145 28.2344527,95 30.9907898,95 L70.0092102,95 C72.7672445,95 75,92.7617514 75,90.0007318 L75,33 C75.5591021,33 76,32.5543453 76,32.0046024 L76,23.9953976 C76,23.4556644 75.5541308,23 75.0041233,23 L75,9.99926819 C75,7.24718554 72.7655473,5 70.0092102,5 L30.9907898,5 C28.2327555,5 26,7.23824861 26,9.99926819 L26,16 L26,16 Z M47,89.5 C47,87.5670034 48.5709366,86 50.5,86 C52.4329966,86 54,87.5709366 54,89.5 C54,91.4329966 52.4290634,93 50.5,93 C48.5670034,93 47,91.4290634 47,89.5 Z M28,14 L73,14 L73,84 L28,84 L28,14 Z M46,10.5 C46,10.2238576 46.2224731,10 46.5096658,10 L54.4903342,10 C54.7718148,10 55,10.2319336 55,10.5 C55,10.7761424 54.7775269,11 54.4903342,11 L46.5096658,11 C46.2281852,11 46,10.7680664 46,10.5 Z"/>
      <path
        d="M28.5,14.5 L72.5,14.5 L72.5,83.5 L28.5,83.5 L28.5,14.5 Z M33.5,19.5 L33.5,27.5 L41.5,27.5 L41.5,19.5 L33.5,19.5 Z M33.5,34 L33.5,42 L41.5,42 L41.5,34 L33.5,34 Z M44.5,19.5 L44.5,21.5 L60.5,21.5 L60.5,19.5 L44.5,19.5 Z M44.5,34 L44.5,36 L56.5,36 L56.5,34 L44.5,34 Z M44.5,22.5 L44.5,24.5 L63.5,24.5 L63.5,22.5 L44.5,22.5 Z M44.5,37 L44.5,39 L49.5,39 L49.5,37 L44.5,37 Z M44.5,25.5 L44.5,27.5 L58.5,27.5 L58.5,25.5 L44.5,25.5 Z M44.5,40 L44.5,42 L56.5,42 L56.5,40 L44.5,40 Z M28.5,30.5 L28.5,31 L72.5,31 L72.5,30.5 L28.5,30.5 Z M28.5,45 L28.5,45.5 L72.5,45.5 L72.5,45 L28.5,45 Z M33.5,48 L33.5,56 L41.5,56 L41.5,48 L33.5,48 Z M44.5,48 L44.5,50 L58.5,50 L58.5,48 L44.5,48 Z M44.5,51 L44.5,53 L60.5,53 L60.5,51 L44.5,51 Z M44.5,54 L44.5,56 L63.5,56 L63.5,54 L44.5,54 Z M28.5,59 L28.5,59.5 L72.5,59.5 L72.5,59 L28.5,59 Z M33.5,62 L33.5,70 L41.5,70 L41.5,62 L33.5,62 Z M44.5,62 L44.5,64 L61.5,64 L61.5,62 L44.5,62 Z M44.5,65 L44.5,67 L52.5,67 L52.5,65 L44.5,65 Z M44.5,68 L44.5,70 L57.5,70 L57.5,68 L44.5,68 Z M28.5,73 L28.5,73.5 L72.5,73.5 L72.5,73 L28.5,73 Z M33.5,76 L33.5,83 L41.5,83 L41.5,76 L33.5,76 Z M44.5,76 L44.5,78 L59.5,78 L59.5,76 L44.5,76 Z M44.5,79 L44.5,81 L62.5,81 L62.5,79 L44.5,79 Z M44.5,82 L44.5,83 L50.5,83 L50.5,82 L44.5,82 Z"/>
    </g>
  </g>
</svg>
