<svg xmlns="http://www.w3.org/2000/svg" xmlns:xlink="http://www.w3.org/1999/xlink" version="1.1" x="0px" y="0px" viewBox="0 0 100 100" color="#2B4463" fill="#ffa387"
  enable-background="new 0 0 100 100" xml:space="preserve">
  <path d="M56.5507813,31.9155273c14.4453125,1.5673828,27.4350586,8.1748047,36.953125,18.140625  c-9.5180664,9.8544922-22.5078125,16.4609375-36.953125,18.0283203c7.390625-2.6875,12.6538086-9.7421875,12.6538086-18.0283203  S63.9414063,34.6030273,56.5507813,31.9155273z M43.4492188,68.0844727  c-14.4453125-1.5673828-27.3232422-8.1738281-36.953125-18.0283203c9.6298828-9.9658203,22.5078125-16.5732422,36.953125-18.140625  c-7.390625,2.6875-12.6538086,9.8544922-12.6538086,18.140625S36.0585938,65.3969727,43.4492188,68.0844727z"/>
  <path
    d="M50.0561523,37.4580078c-6.9428711,0-12.6538086,5.5996094-12.6538086,12.5419922
    s5.7109375,12.5419922,12.6538086,12.5419922c6.8305664,0,12.5415039-5.5996094,12.5415039-12.5419922
    S56.8867188,37.4580078,50.0561523,37.4580078z M50.0561523,55.8232422c-3.2475586,0-5.9350586-2.5761719-5.9350586-5.8232422
    s2.6875-5.9345703,5.9350586-5.9345703c3.1352539,0,5.8227539,2.6875,5.8227539,5.9345703  S53.1914063,55.8232422,50.0561523,55.8232422z"/>
  </svg>
