<svg xmlns="http://www.w3.org/2000/svg" width="1080" height="1080" viewBox="0 0 1080 1080"><g transform="translate(-8 -8)"><rect width="136" height="136" transform="translate(952 952)"/><path d="M397.958,107.492V219.979H352.963V152.487H82.995v67.492H38V107.492H195.481V40h44.995v67.492Z" transform="translate(644.921 687.915)"/><rect width="180" height="176" transform="translate(772 504)"/><path d="M691.921,87.492V199.979H646.926V132.487H61.995v67.492H17V87.492H331.963V20h44.995V87.492Z" transform="translate(193.476 257.968)"/><rect width="136" height="136" transform="translate(636 952)"/><rect width="220" height="224" transform="translate(438 8)"/><rect width="136" height="136" transform="translate(324 952)"/><path d="M369.958,107.492V219.979H324.963V152.487H54.995v67.492H10V107.492H167.481V40h44.995v67.492Z" transform="translate(42.995 687.915)"/><rect width="180" height="176" transform="translate(144 504)"/><rect width="136" height="136" transform="translate(8 952)"/></g></svg>