<svg xmlns="http://www.w3.org/2000/svg" viewBox="0 0 63 65" x="0px" y="0px">
  <g>
    <path
      d="M18,60H60V12H18Zm28-5H30V53H46ZM30,51V49H42v2Zm18,0H44V49h4Zm2-27h4v2H50ZM44,14h4v2H44ZM30,14H42v2H30Zm0,4H46v2H30Zm-6-4a4,4,0,1,1-4,4A4,4,0,0,1,24,14ZM20,24H48v2H20Zm0,5a1,1,0,0,1,1-1H57a1,1,0,0,1,1,1V46a1,1,0,0,1-1,1H21a1,1,0,0,1-1-1Zm4,20a4,4,0,1,1-4,4A4,4,0,0,1,24,49Z"/>
    <circle cx="24" cy="18" r="2"/>
    <path d="M56,30H22V45H56ZM42.555,37.832l-6,4A1,1,0,0,1,35,41V34a1,1,0,0,1,1.447-.895l6,3a1,1,0,0,1,.107,1.727Z"/>
    <polygon points="37 39.131 40.012 37.124 37 35.618 37 39.131"/>
    <circle cx="24" cy="53" r="2"/>
    <path d="M4,60H16V12H4ZM14,32H8V30h6Zm0-8H8V22h6Zm0-4H8V18h6ZM6,14h5v2H6ZM6,26h6v2H6Z"/>
    <path d="M4,4v6H60V4ZM18,8H6V6H18ZM50,8H48V6h2Zm4,0H52V6h2Zm4,0H56V6h2Z"/>
  </g>
</svg>
