<svg id="Layer_1" data-name="Layer 1" xmlns="http://www.w3.org/2000/svg" xmlns:xlink="http://www.w3.org/1999/xlink" viewBox="0 0 1920 1080"><defs><style>.cls-1{opacity:1;isolation:isolate;fill:url(#radial-gradient);}.cls-2{fill:url(#linear-gradient);}.cls-3{fill:url(#linear-gradient-2);}</style><radialGradient id="radial-gradient" cx="-959" cy="1624.9" r="1.69" gradientTransform="matrix(1920, 0, 0, -1080, 1842240, 1755431.95)" gradientUnits="userSpaceOnUse"><stop offset="0" stop-color="#ff6e40"/><stop offset="1" stop-color="#803720"/></radialGradient><linearGradient id="linear-gradient" x1="735.16" y1="114.05" x2="2653.91" y2="114.05" gradientTransform="translate(2654.06 724.01) rotate(180)" gradientUnits="userSpaceOnUse"><stop offset="0" stop-color="#b24528"/><stop offset="1" stop-color="#ff6340"/></linearGradient><linearGradient id="linear-gradient-2" x1="735.21" y1="-53.06" x2="2653.05" y2="-53.06" gradientTransform="translate(2654.06 724.01) rotate(180)" gradientUnits="userSpaceOnUse"><stop offset="0" stop-color="#ff6340"/><stop offset="1" stop-color="#b24528"/></linearGradient></defs><rect class="cls-1" width="1920" height="1080"/><path class="cls-2" d="M1,1080s-21.24-77.36,147.77-165.62,455.16-67.94,624.12-62.5c361.15,11.64,723.18,86.63,961.11-71.27,166.3-110.36,184.92-264.69,184.84-280.13-.41-84.78.05-360.55.05-360.55l-.05,348.73V1080Z" transform="translate(0 0)"/><path class="cls-3" d="M1,1080s-.75-67.24,165.07-148.62C313.74,858.91,530,844.63,698.94,849.23c361.15,9.83,589.74,62.63,852.18,33.58,140.55-15.56,259.64-78,309.8-171.21,55-102.12,57.85-237.46,57.85-237.46l.08,106.53V1080Z" transform="translate(0 0)"/></svg>