<svg id="Layer_1" data-name="Layer 1" xmlns="http://www.w3.org/2000/svg" xmlns:xlink="http://www.w3.org/1999/xlink" viewBox="0 0 1920 1080"><defs><style>.cls-1{opacity:1;isolation:isolate;fill:url(#radial-gradient);}.cls-2{fill:url(#linear-gradient);}.cls-3{fill:url(#linear-gradient-2);}</style><radialGradient id="radial-gradient" cx="-959" cy="1624.9" r="1.69" gradientTransform="matrix(1920, 0, 0, -1080, 1842240, 1755431.95)" gradientUnits="userSpaceOnUse"><stop offset="0" stop-color="#ff6e40"/><stop offset="1" stop-color="#803720"/></radialGradient><linearGradient id="linear-gradient" x1="734.06" y1="22.99" x2="2653.91" y2="22.99" gradientTransform="translate(2654.06 724.01) rotate(180)" gradientUnits="userSpaceOnUse"><stop offset="0" stop-color="#b24528"/><stop offset="1" stop-color="#ff6340"/></linearGradient><linearGradient id="linear-gradient-2" x1="735.16" y1="-106.32" x2="2654.06" y2="-106.32" gradientTransform="translate(2654.06 724.01) rotate(180)" gradientUnits="userSpaceOnUse"><stop offset="0" stop-color="#ff6340"/><stop offset="1" stop-color="#b24528"/></linearGradient></defs><rect class="cls-1" width="1920" height="1080"/><path class="cls-2" d="M1,1080s-21.24-77.36,147.77-165.62,455.16-67.94,624.12-62.5c361.15,11.64,838.94,33.23,983.67-50.72,172.64-100.14,162.36-287,162.28-302.45-.41-84.78,1.15-176.66,1.15-176.66l-1.15,166.61V1080Z" transform="translate(0 0)"/><path class="cls-3" d="M1,1080s-22.6-66.16,146.41-140.69S530,844.63,698.94,849.23c361.15,9.83,589.74,62.63,852.18,33.58,140.55-15.56,263.17-52.48,332.9-163.89,37.7-60.23,34.83-138.25,34.83-138.25h0V1080Z" transform="translate(0 0)"/></svg>