<svg xmlns="http://www.w3.org/2000/svg" width="65.573" height="53.187" viewBox="0 0 65.573 53.187"><defs><style>.a{fill:#fff;fill-rule:evenodd;}</style></defs><g transform="translate(0 0)"><path class="a" d="M58.765,55.187c24.772,0,38.251-20.4,38.251-38.251V15.115a29.612,29.612,0,0,0,6.557-6.922,30.241,30.241,0,0,1-7.65,2.186,14.174,14.174,0,0,0,5.829-7.286,33.414,33.414,0,0,1-8.379,3.279A13.01,13.01,0,0,0,83.537,2,13.687,13.687,0,0,0,70.058,15.479a7.1,7.1,0,0,0,.364,2.914A37.664,37.664,0,0,1,42.736,4.186a13.951,13.951,0,0,0-1.821,6.922A14.474,14.474,0,0,0,46.743,22.4a12.281,12.281,0,0,1-6.193-1.821h0A13.314,13.314,0,0,0,51.479,33.694a11.231,11.231,0,0,1-3.643.364,6.2,6.2,0,0,1-2.55-.364,13.8,13.8,0,0,0,12.75,9.472,27.5,27.5,0,0,1-16.758,5.829A10.086,10.086,0,0,1,38,48.63a34.385,34.385,0,0,0,20.765,6.557" transform="translate(-38 -2)"/></g></svg>